<svg width="1000" height="1009" viewBox="0 0 1000 1009" fill="none" xmlns="http://www.w3.org/2000/svg">
<g clip-path="url(#clip0_8_862)">
<rect x="13" y="2" width="1000" height="1009" rx="110" fill="#282828"/>
<rect width="71.986" height="845.745" transform="matrix(0.998824 -0.0484757 0.0565018 0.998402 788.645 114.353)" fill="#AA2B2B"/>
<rect width="71.986" height="836.133" transform="matrix(0.998824 0.0484757 -0.0565018 0.998402 137.095 116.713)" fill="#AA2B2B"/>
<rect x="95" y="182.519" width="810" height="72.5105" fill="#AA2B2B"/>
<rect x="470.3" y="124.177" width="58.5" height="58.3418" fill="#AA2B2B"/>
<rect x="50" y="55" width="900" height="69.1767" fill="#AA2B2B"/>
<rect x="192.2" y="802.608" width="614.7" height="93.3468" fill="#4F4F4F"/>
<g filter="url(#filter0_d_8_862)">
<rect x="644.9" y="566.074" width="58.5" height="54.1744" fill="white"/>
<rect x="574.7" y="566.074" width="58.5" height="54.1744" fill="white"/>
<rect x="504.5" y="566.074" width="58.5" height="54.1744" fill="white"/>
<rect x="434.3" y="566.074" width="58.5" height="54.1744" fill="white"/>
<rect x="364.1" y="566.074" width="58.5" height="54.1744" fill="white"/>
<rect x="293.9" y="566.074" width="58.5" height="54.1744" fill="white"/>
<g filter="url(#filter1_d_8_862)">
<rect width="17.0237" height="16.8027" transform="matrix(0.81571 -0.583783 0.638687 0.765329 737.932 472.83)" fill="white"/>
</g>
<g filter="url(#filter2_d_8_862)">
<rect width="17.0225" height="16.8041" transform="matrix(0.821429 -0.576985 0.631153 0.770577 715.589 460.015)" fill="white"/>
</g>
<g filter="url(#filter3_d_8_862)">
<rect width="17.0171" height="16.8095" transform="matrix(0.843239 -0.549866 0.601102 0.79053 696.282 445.187)" fill="white"/>
</g>
<g filter="url(#filter4_d_8_862)">
<rect width="16.7818" height="17.0444" transform="matrix(0.846413 0.568775 -0.604729 0.771754 713.721 495.784)" fill="white"/>
</g>
<g filter="url(#filter5_d_8_862)">
<rect width="16.7818" height="17.0444" transform="matrix(0.846413 0.568775 -0.604729 0.771754 694.782 483.058)" fill="white"/>
</g>
<g filter="url(#filter6_d_8_862)">
<rect width="16.7818" height="17.0444" transform="matrix(0.846413 0.568775 -0.604729 0.771754 675.843 470.331)" fill="white"/>
</g>
<g filter="url(#filter7_d_8_862)">
<rect width="16.7818" height="17.0444" transform="matrix(0.846413 0.568775 -0.604729 0.771754 727.464 478.245)" fill="white"/>
</g>
<g filter="url(#filter8_d_8_862)">
<rect width="16.7818" height="17.0444" transform="matrix(0.846413 0.568775 -0.604729 0.771754 708.525 465.519)" fill="white"/>
</g>
<g filter="url(#filter9_d_8_862)">
<rect width="16.7818" height="17.0444" transform="matrix(0.846413 0.568775 -0.604729 0.771754 689.586 452.792)" fill="white"/>
</g>
<rect width="56.9716" height="55.4965" transform="matrix(0.820113 -0.572202 0.574951 0.818188 576.615 489.42)" fill="white"/>
<rect width="57.6561" height="54.881" transform="matrix(0.906885 -0.421379 0.423859 0.905728 502.674 505.119)" fill="white"/>
<g filter="url(#filter10_d_8_862)">
<rect x="434.3" y="501.064" width="58.5" height="54.1744" fill="white"/>
</g>
<g filter="url(#filter11_d_8_862)">
<rect x="364.1" y="501.064" width="58.5" height="54.1744" fill="white"/>
</g>
<g filter="url(#filter12_d_8_862)">
<rect x="293.9" y="501.064" width="58.5" height="54.1744" fill="white"/>
</g>
</g>
<path d="M223.7 593.411H773.6V802.608H223.7V593.411Z" fill="#A88034"/>
<path d="M223.7 593.411V565.907H254.3V593.411H223.7Z" fill="#A88034"/>
<path d="M744.8 593.411V565.907H773.6V593.411H744.8Z" fill="#A88034"/>
<rect width="145.663" height="145.663" transform="matrix(0.733712 -0.679461 0.733712 0.679461 393.8 698.218)" fill="#60A07C"/>
<rect x="428" y="629.816" width="147.488" height="131.836" fill="#D580B0"/>
<rect width="129.014" height="129.014" transform="matrix(0.745559 -0.66644 0.745559 0.66644 404.487 694.779)" fill="white"/>
<rect x="436.55" y="637.459" width="130.387" height="116.551" fill="#60A07C"/>
<rect width="114.679" height="114.679" transform="matrix(0.745559 -0.66644 0.745559 0.66644 415.175 694.779)" fill="#D580B0"/>
<path d="M558.388 645.085H445.1V746.35H558.388V645.085Z" fill="white"/>
<g filter="url(#filter13_d_8_862)">
<path d="M412.53 414H371.11L344.32 362.13L333.49 368.59V414H296.63V278.34H333.49V337.24C335.01 334.327 336.783 331.413 338.81 328.5C340.837 325.46 342.8 322.61 344.7 319.95L373.2 278.34H413.29L370.54 339.14L412.53 414ZM473.999 278.34C491.226 278.34 504.083 282.077 512.569 289.55C521.183 297.023 525.489 307.663 525.489 321.47C525.489 327.677 524.603 333.63 522.829 339.33C521.056 344.903 518.143 349.97 514.089 354.53C510.163 358.963 504.906 362.51 498.319 365.17C491.733 367.703 483.626 368.97 473.999 368.97H463.739V414H427.069V278.34H473.999ZM473.239 307.98H463.739V339.14H470.959C474.126 339.14 477.039 338.633 479.699 337.62C482.486 336.48 484.703 334.707 486.349 332.3C487.996 329.767 488.819 326.473 488.819 322.42C488.819 318.113 487.553 314.63 485.019 311.97C482.486 309.31 478.559 307.98 473.239 307.98ZM606.208 414L578.468 316.34H577.708C577.962 318.873 578.215 322.293 578.468 326.6C578.722 330.907 578.975 335.593 579.228 340.66C579.482 345.6 579.608 350.413 579.608 355.1V414H547.118V278.34H595.948L624.258 374.67H625.018L652.758 278.34H701.588V414H667.958V354.53C667.958 350.223 668.022 345.663 668.148 340.85C668.275 335.91 668.465 331.287 668.718 326.98C668.972 322.547 669.162 319.063 669.288 316.53H668.528L641.168 414H606.208Z" fill="#AB9520"/>
</g>
<rect x="83" y="951" width="79" height="25" fill="#282828"/>
<rect x="831" y="951" width="79" height="25" fill="#282828"/>
</g>
<defs>
<filter id="filter0_d_8_862" x="289.9" y="435.83" width="476.65" height="192.418" filterUnits="userSpaceOnUse" color-interpolation-filters="sRGB">
<feFlood flood-opacity="0" result="BackgroundImageFix"/>
<feColorMatrix in="SourceAlpha" type="matrix" values="0 0 0 0 0 0 0 0 0 0 0 0 0 0 0 0 0 0 127 0" result="hardAlpha"/>
<feOffset dy="4"/>
<feGaussianBlur stdDeviation="2"/>
<feComposite in2="hardAlpha" operator="out"/>
<feColorMatrix type="matrix" values="0 0 0 0 0 0 0 0 0 0 0 0 0 0 0 0 0 0 0.25 0"/>
<feBlend mode="normal" in2="BackgroundImageFix" result="effect1_dropShadow_8_862"/>
<feBlend mode="normal" in="SourceGraphic" in2="effect1_dropShadow_8_862" result="shape"/>
</filter>
<filter id="filter1_d_8_862" x="733.932" y="462.892" width="32.6182" height="30.7979" filterUnits="userSpaceOnUse" color-interpolation-filters="sRGB">
<feFlood flood-opacity="0" result="BackgroundImageFix"/>
<feColorMatrix in="SourceAlpha" type="matrix" values="0 0 0 0 0 0 0 0 0 0 0 0 0 0 0 0 0 0 127 0" result="hardAlpha"/>
<feOffset dy="4"/>
<feGaussianBlur stdDeviation="2"/>
<feComposite in2="hardAlpha" operator="out"/>
<feColorMatrix type="matrix" values="0 0 0 0 0 0 0 0 0 0 0 0 0 0 0 0 0 0 0.25 0"/>
<feBlend mode="normal" in2="BackgroundImageFix" result="effect1_dropShadow_8_862"/>
<feBlend mode="normal" in="SourceGraphic" in2="effect1_dropShadow_8_862" result="shape"/>
</filter>
<filter id="filter2_d_8_862" x="711.589" y="450.193" width="32.5887" height="30.7705" filterUnits="userSpaceOnUse" color-interpolation-filters="sRGB">
<feFlood flood-opacity="0" result="BackgroundImageFix"/>
<feColorMatrix in="SourceAlpha" type="matrix" values="0 0 0 0 0 0 0 0 0 0 0 0 0 0 0 0 0 0 127 0" result="hardAlpha"/>
<feOffset dy="4"/>
<feGaussianBlur stdDeviation="2"/>
<feComposite in2="hardAlpha" operator="out"/>
<feColorMatrix type="matrix" values="0 0 0 0 0 0 0 0 0 0 0 0 0 0 0 0 0 0 0.25 0"/>
<feBlend mode="normal" in2="BackgroundImageFix" result="effect1_dropShadow_8_862"/>
<feBlend mode="normal" in="SourceGraphic" in2="effect1_dropShadow_8_862" result="shape"/>
</filter>
<filter id="filter3_d_8_862" x="692.282" y="435.83" width="32.4537" height="30.6455" filterUnits="userSpaceOnUse" color-interpolation-filters="sRGB">
<feFlood flood-opacity="0" result="BackgroundImageFix"/>
<feColorMatrix in="SourceAlpha" type="matrix" values="0 0 0 0 0 0 0 0 0 0 0 0 0 0 0 0 0 0 127 0" result="hardAlpha"/>
<feOffset dy="4"/>
<feGaussianBlur stdDeviation="2"/>
<feComposite in2="hardAlpha" operator="out"/>
<feColorMatrix type="matrix" values="0 0 0 0 0 0 0 0 0 0 0 0 0 0 0 0 0 0 0.25 0"/>
<feBlend mode="normal" in2="BackgroundImageFix" result="effect1_dropShadow_8_862"/>
<feBlend mode="normal" in="SourceGraphic" in2="effect1_dropShadow_8_862" result="shape"/>
</filter>
<filter id="filter4_d_8_862" x="699.414" y="495.784" width="32.5116" height="30.6992" filterUnits="userSpaceOnUse" color-interpolation-filters="sRGB">
<feFlood flood-opacity="0" result="BackgroundImageFix"/>
<feColorMatrix in="SourceAlpha" type="matrix" values="0 0 0 0 0 0 0 0 0 0 0 0 0 0 0 0 0 0 127 0" result="hardAlpha"/>
<feOffset dy="4"/>
<feGaussianBlur stdDeviation="2"/>
<feComposite in2="hardAlpha" operator="out"/>
<feColorMatrix type="matrix" values="0 0 0 0 0 0 0 0 0 0 0 0 0 0 0 0 0 0 0.25 0"/>
<feBlend mode="normal" in2="BackgroundImageFix" result="effect1_dropShadow_8_862"/>
<feBlend mode="normal" in="SourceGraphic" in2="effect1_dropShadow_8_862" result="shape"/>
</filter>
<filter id="filter5_d_8_862" x="680.475" y="483.058" width="32.5116" height="30.6992" filterUnits="userSpaceOnUse" color-interpolation-filters="sRGB">
<feFlood flood-opacity="0" result="BackgroundImageFix"/>
<feColorMatrix in="SourceAlpha" type="matrix" values="0 0 0 0 0 0 0 0 0 0 0 0 0 0 0 0 0 0 127 0" result="hardAlpha"/>
<feOffset dy="4"/>
<feGaussianBlur stdDeviation="2"/>
<feComposite in2="hardAlpha" operator="out"/>
<feColorMatrix type="matrix" values="0 0 0 0 0 0 0 0 0 0 0 0 0 0 0 0 0 0 0.25 0"/>
<feBlend mode="normal" in2="BackgroundImageFix" result="effect1_dropShadow_8_862"/>
<feBlend mode="normal" in="SourceGraphic" in2="effect1_dropShadow_8_862" result="shape"/>
</filter>
<filter id="filter6_d_8_862" x="661.536" y="470.331" width="32.5116" height="30.6992" filterUnits="userSpaceOnUse" color-interpolation-filters="sRGB">
<feFlood flood-opacity="0" result="BackgroundImageFix"/>
<feColorMatrix in="SourceAlpha" type="matrix" values="0 0 0 0 0 0 0 0 0 0 0 0 0 0 0 0 0 0 127 0" result="hardAlpha"/>
<feOffset dy="4"/>
<feGaussianBlur stdDeviation="2"/>
<feComposite in2="hardAlpha" operator="out"/>
<feColorMatrix type="matrix" values="0 0 0 0 0 0 0 0 0 0 0 0 0 0 0 0 0 0 0.25 0"/>
<feBlend mode="normal" in2="BackgroundImageFix" result="effect1_dropShadow_8_862"/>
<feBlend mode="normal" in="SourceGraphic" in2="effect1_dropShadow_8_862" result="shape"/>
</filter>
<filter id="filter7_d_8_862" x="713.157" y="478.245" width="32.5116" height="30.6992" filterUnits="userSpaceOnUse" color-interpolation-filters="sRGB">
<feFlood flood-opacity="0" result="BackgroundImageFix"/>
<feColorMatrix in="SourceAlpha" type="matrix" values="0 0 0 0 0 0 0 0 0 0 0 0 0 0 0 0 0 0 127 0" result="hardAlpha"/>
<feOffset dy="4"/>
<feGaussianBlur stdDeviation="2"/>
<feComposite in2="hardAlpha" operator="out"/>
<feColorMatrix type="matrix" values="0 0 0 0 0 0 0 0 0 0 0 0 0 0 0 0 0 0 0.25 0"/>
<feBlend mode="normal" in2="BackgroundImageFix" result="effect1_dropShadow_8_862"/>
<feBlend mode="normal" in="SourceGraphic" in2="effect1_dropShadow_8_862" result="shape"/>
</filter>
<filter id="filter8_d_8_862" x="694.218" y="465.519" width="32.5116" height="30.6992" filterUnits="userSpaceOnUse" color-interpolation-filters="sRGB">
<feFlood flood-opacity="0" result="BackgroundImageFix"/>
<feColorMatrix in="SourceAlpha" type="matrix" values="0 0 0 0 0 0 0 0 0 0 0 0 0 0 0 0 0 0 127 0" result="hardAlpha"/>
<feOffset dy="4"/>
<feGaussianBlur stdDeviation="2"/>
<feComposite in2="hardAlpha" operator="out"/>
<feColorMatrix type="matrix" values="0 0 0 0 0 0 0 0 0 0 0 0 0 0 0 0 0 0 0.25 0"/>
<feBlend mode="normal" in2="BackgroundImageFix" result="effect1_dropShadow_8_862"/>
<feBlend mode="normal" in="SourceGraphic" in2="effect1_dropShadow_8_862" result="shape"/>
</filter>
<filter id="filter9_d_8_862" x="675.279" y="452.792" width="32.5115" height="30.6992" filterUnits="userSpaceOnUse" color-interpolation-filters="sRGB">
<feFlood flood-opacity="0" result="BackgroundImageFix"/>
<feColorMatrix in="SourceAlpha" type="matrix" values="0 0 0 0 0 0 0 0 0 0 0 0 0 0 0 0 0 0 127 0" result="hardAlpha"/>
<feOffset dy="4"/>
<feGaussianBlur stdDeviation="2"/>
<feComposite in2="hardAlpha" operator="out"/>
<feColorMatrix type="matrix" values="0 0 0 0 0 0 0 0 0 0 0 0 0 0 0 0 0 0 0.25 0"/>
<feBlend mode="normal" in2="BackgroundImageFix" result="effect1_dropShadow_8_862"/>
<feBlend mode="normal" in="SourceGraphic" in2="effect1_dropShadow_8_862" result="shape"/>
</filter>
<filter id="filter10_d_8_862" x="430.3" y="501.064" width="66.5" height="62.1743" filterUnits="userSpaceOnUse" color-interpolation-filters="sRGB">
<feFlood flood-opacity="0" result="BackgroundImageFix"/>
<feColorMatrix in="SourceAlpha" type="matrix" values="0 0 0 0 0 0 0 0 0 0 0 0 0 0 0 0 0 0 127 0" result="hardAlpha"/>
<feOffset dy="4"/>
<feGaussianBlur stdDeviation="2"/>
<feComposite in2="hardAlpha" operator="out"/>
<feColorMatrix type="matrix" values="0 0 0 0 0 0 0 0 0 0 0 0 0 0 0 0 0 0 0.25 0"/>
<feBlend mode="normal" in2="BackgroundImageFix" result="effect1_dropShadow_8_862"/>
<feBlend mode="normal" in="SourceGraphic" in2="effect1_dropShadow_8_862" result="shape"/>
</filter>
<filter id="filter11_d_8_862" x="360.1" y="501.064" width="66.5" height="62.1743" filterUnits="userSpaceOnUse" color-interpolation-filters="sRGB">
<feFlood flood-opacity="0" result="BackgroundImageFix"/>
<feColorMatrix in="SourceAlpha" type="matrix" values="0 0 0 0 0 0 0 0 0 0 0 0 0 0 0 0 0 0 127 0" result="hardAlpha"/>
<feOffset dy="4"/>
<feGaussianBlur stdDeviation="2"/>
<feComposite in2="hardAlpha" operator="out"/>
<feColorMatrix type="matrix" values="0 0 0 0 0 0 0 0 0 0 0 0 0 0 0 0 0 0 0.25 0"/>
<feBlend mode="normal" in2="BackgroundImageFix" result="effect1_dropShadow_8_862"/>
<feBlend mode="normal" in="SourceGraphic" in2="effect1_dropShadow_8_862" result="shape"/>
</filter>
<filter id="filter12_d_8_862" x="289.9" y="501.064" width="66.5" height="62.1743" filterUnits="userSpaceOnUse" color-interpolation-filters="sRGB">
<feFlood flood-opacity="0" result="BackgroundImageFix"/>
<feColorMatrix in="SourceAlpha" type="matrix" values="0 0 0 0 0 0 0 0 0 0 0 0 0 0 0 0 0 0 127 0" result="hardAlpha"/>
<feOffset dy="4"/>
<feGaussianBlur stdDeviation="2"/>
<feComposite in2="hardAlpha" operator="out"/>
<feColorMatrix type="matrix" values="0 0 0 0 0 0 0 0 0 0 0 0 0 0 0 0 0 0 0.25 0"/>
<feBlend mode="normal" in2="BackgroundImageFix" result="effect1_dropShadow_8_862"/>
<feBlend mode="normal" in="SourceGraphic" in2="effect1_dropShadow_8_862" result="shape"/>
</filter>
<filter id="filter13_d_8_862" x="292.63" y="278.34" width="412.958" height="143.66" filterUnits="userSpaceOnUse" color-interpolation-filters="sRGB">
<feFlood flood-opacity="0" result="BackgroundImageFix"/>
<feColorMatrix in="SourceAlpha" type="matrix" values="0 0 0 0 0 0 0 0 0 0 0 0 0 0 0 0 0 0 127 0" result="hardAlpha"/>
<feOffset dy="4"/>
<feGaussianBlur stdDeviation="2"/>
<feComposite in2="hardAlpha" operator="out"/>
<feColorMatrix type="matrix" values="0 0 0 0 0 0 0 0 0 0 0 0 0 0 0 0 0 0 0.25 0"/>
<feBlend mode="normal" in2="BackgroundImageFix" result="effect1_dropShadow_8_862"/>
<feBlend mode="normal" in="SourceGraphic" in2="effect1_dropShadow_8_862" result="shape"/>
</filter>
<clipPath id="clip0_8_862">
<rect width="1000" height="1009" fill="white"/>
</clipPath>
</defs>
</svg>
